<svg xmlns="http://www.w3.org/2000/svg" viewBox="0 0 16 16" width="16" height="16" preserveAspectRatio="xMinYMid meet"><defs><style>.a{fill:none;stroke:#000;stroke-miterlimit:10;stroke-width:.75px}</style></defs><title>icon</title><path class="a" d="M.38 8.17h15.04v4.5H.38z"/><path d="M4.76 6.57H4.1a6.64 6.64 0 0 1-.8-1.64 5.38 5.38 0 0 1-.27-1.65 5.17 5.17 0 0 1 .34-1.87A6.56 6.56 0 0 1 4.11 0h.66a10.41 10.41 0 0 0-.64 1.76 6.62 6.62 0 0 0-.07 2.69 7.48 7.48 0 0 0 .28 1.12q.12.35.42 1zM11.06 6.57q.28-.61.4-.93a7 7 0 0 0 .22-.75 8.09 8.09 0 0 0 .15-.81 6.2 6.2 0 0 0 0-.78 6.52 6.52 0 0 0-.17-1.54 10.13 10.13 0 0 0-.6-1.76h.65a6.29 6.29 0 0 1 .8 1.56 5.07 5.07 0 0 1 .29 1.67 5.77 5.77 0 0 1-.23 1.53 6.43 6.43 0 0 1-.84 1.81h-.67z"/></svg>
